<svg width="62" height="69" viewBox="0 0 62 69" fill="none" xmlns="http://www.w3.org/2000/svg">
<path d="M30.9621 69L5.64248 62.1024L0 0H62L56.3517 62.0929L30.9621 69Z" fill="#264DE4"/>
<path d="M51.5159 58.139L56.3426 5.07764H30.9999V63.7203L51.5159 58.139Z" fill="#2965F1"/>
<path d="M12.9352 28.1108L13.6307 35.7274H31V28.1108H12.9352Z" fill="#EBEBEB"/>
<path d="M11.5371 12.6943L12.2426 20.3109H30.9999V12.6943H11.5371Z" fill="#EBEBEB"/>
<path d="M30.9999 47.8918L30.9659 47.9006L22.3217 45.6102L21.769 39.5356H13.9774L15.0647 51.4949L30.9642 55.8258L30.9999 55.8163V47.8918Z" fill="#EBEBEB"/>
<path d="M49.0152 28.1105L50.4162 12.6943H30.9731V20.3109H41.9101L41.2038 28.1105H30.9731V35.7271H40.5309L39.6297 45.6053L30.9729 47.8981V55.8221L46.885 51.4948L47.0016 50.2079L48.8258 30.1558L49.0152 28.1105Z" fill="white"/>
</svg>
