<svg width="19" height="19" viewBox="0 0 19 19" fill="none" xmlns="http://www.w3.org/2000/svg">
<path d="M9.5 0C4.25329 0 0 4.25329 0 9.5C0 14.7467 4.25329 19 9.5 19C14.7467 19 19 14.7467 19 9.5C19 4.25329 14.7467 0 9.5 0ZM9.5 1.03442C14.1754 1.03442 17.9656 4.82459 17.9656 9.5C17.9656 14.1754 14.1754 17.9656 9.5 17.9656C4.82459 17.9656 1.03442 14.1754 1.03442 9.5C1.03442 4.82459 4.82459 1.03442 9.5 1.03442Z" fill="#177373"/>
<path d="M15.0594 6.02506V12.9741C15.0594 13.3679 14.7583 13.669 14.3645 13.669H13.6696V7.36252L9.50016 10.3566L5.33073 7.36252V13.669H4.63582C4.24158 13.669 3.94092 13.3679 3.94092 12.9741V6.02506C3.94092 5.82817 4.01597 5.65444 4.14059 5.53028C4.20562 5.46559 4.28294 5.41456 4.36799 5.38019C4.45304 5.34582 4.5441 5.32881 4.63582 5.33015H4.86746L9.50016 8.68886L14.1329 5.33015H14.3645C14.5614 5.33015 14.7351 5.4052 14.8597 5.53028C14.9848 5.65444 15.0594 5.82817 15.0594 6.02506Z" fill="#177373"/>
</svg>
