<svg width="18" height="15" viewBox="0 0 18 15" fill="none" xmlns="http://www.w3.org/2000/svg">
<path d="M16.2 12.75H14.4V4.78125L9 8.19643L3.6 4.78125V12.75H1.8V1.82143H2.88L9 5.69196L15.12 1.82143H16.2V12.75ZM16.2 0H1.8C0.801 0 0 0.810536 0 1.82143V12.75C0 13.2331 0.189642 13.6964 0.527208 14.0379C0.864773 14.3795 1.32261 14.5714 1.8 14.5714H16.2C16.6774 14.5714 17.1352 14.3795 17.4728 14.0379C17.8104 13.6964 18 13.2331 18 12.75V1.82143C18 1.33836 17.8104 0.875068 17.4728 0.533484C17.1352 0.1919 16.6774 0 16.2 0Z" fill="#F2F2F2"/>
</svg>
