<svg width="69" height="69" viewBox="0 0 69 69" fill="none" xmlns="http://www.w3.org/2000/svg">
<path d="M0 34.5C0 15.4462 15.4462 0 34.5 0C53.5538 0 69 15.4462 69 34.5C69 53.5538 53.5538 69 34.5 69C15.4462 69 0 53.5538 0 34.5Z" fill="#333333"/>
<path d="M27.6001 55.1999C31.4109 55.1999 34.5001 52.1107 34.5001 48.2999V41.3999H27.6001C23.7893 41.3999 20.7001 44.4892 20.7001 48.2999C20.7001 52.1107 23.7893 55.1999 27.6001 55.1999Z" fill="#0ACF83"/>
<path d="M20.7001 34.5001C20.7001 30.6893 23.7893 27.6001 27.6001 27.6001H34.5001V41.4001H27.6001C23.7893 41.4001 20.7001 38.3108 20.7001 34.5001Z" fill="#A259FF"/>
<path d="M20.7001 20.7003C20.7001 16.8895 23.7893 13.8003 27.6001 13.8003H34.5001V27.6003H27.6001C23.7893 27.6003 20.7001 24.511 20.7001 20.7003Z" fill="#F24E1E"/>
<path d="M34.5 13.8003H41.4C45.2108 13.8003 48.3 16.8895 48.3 20.7003C48.3 24.511 45.2108 27.6003 41.4 27.6003H34.5V13.8003Z" fill="#FF7262"/>
<path d="M48.3 34.5001C48.3 38.3108 45.2108 41.4001 41.4 41.4001C37.5892 41.4001 34.5 38.3108 34.5 34.5001C34.5 30.6893 37.5892 27.6001 41.4 27.6001C45.2108 27.6001 48.3 30.6893 48.3 34.5001Z" fill="#1ABCFE"/>
</svg>
