<svg width="69" height="69" viewBox="0 0 69 69" fill="none" xmlns="http://www.w3.org/2000/svg">
<path d="M67.6988 31.4262L37.5727 1.30125C35.8388 -0.433751 33.0249 -0.433751 31.2889 1.30125L25.033 7.55719L32.9689 15.4931C34.813 14.87 36.9277 15.288 38.3978 16.7581C39.8748 18.2376 40.2899 20.3704 39.6516 22.2205L47.2996 29.8689C49.1499 29.2314 51.2849 29.6438 52.7627 31.1241C54.8282 33.1887 54.8282 36.535 52.7627 38.601C50.6968 40.6673 47.3505 40.6673 45.2835 38.601C43.7299 37.0458 43.3461 34.7642 44.1326 32.8502L37.0002 25.7177L36.9994 44.4874C37.5165 44.7431 37.9887 45.0808 38.3978 45.4874C40.4632 47.5521 40.4632 50.8986 38.3978 52.9662C36.3318 55.0314 32.9839 55.0314 30.921 52.9662C28.8555 50.8986 28.8555 47.5523 30.921 45.4877C31.4159 44.9925 32.0041 44.6003 32.6516 44.3338V25.3892C32.0032 25.1245 31.4146 24.7321 30.921 24.2353C29.3561 22.6725 28.9798 20.3763 29.7816 18.4548L21.9588 10.631L1.30184 31.2869C-0.433946 33.0235 -0.433946 35.8377 1.30184 37.573L31.4285 67.6985C33.1629 69.4338 35.9763 69.4338 37.7129 67.6985L67.6986 37.7129C69.4338 35.9771 69.4338 33.1612 67.6986 31.4262" fill="#DE4C36"/>
</svg>
