<svg width="48" height="48" viewBox="0 0 48 48" fill="none" xmlns="http://www.w3.org/2000/svg">
<path d="M23.9556 0C10.7271 0 0 10.9079 0 24.3646C0 35.1297 6.864 44.2627 16.3823 47.4844C17.5796 47.71 18.0191 46.9559 18.0191 46.3123C18.0191 45.7313 17.9969 43.812 17.9866 41.7761C11.3221 43.25 9.91575 38.9013 9.91575 38.9013C8.82605 36.0851 7.25593 35.3362 7.25593 35.3362C5.08244 33.824 7.41977 33.8551 7.41977 33.8551C9.82532 34.0266 11.092 36.3659 11.092 36.3659C13.2286 40.0908 16.6961 39.0139 18.0631 38.3913C18.2781 36.817 18.899 35.7413 19.584 35.1333C14.2632 34.5172 8.66975 32.428 8.66975 23.092C8.66975 20.4319 9.60555 18.2584 11.138 16.5521C10.8893 15.938 10.0693 13.4603 11.3701 10.1042C11.3701 10.1042 13.3817 9.44935 17.9596 12.6017C19.8705 12.0619 21.9198 11.7911 23.9556 11.7819C25.9915 11.7911 28.0424 12.0619 29.9568 12.6017C34.5291 9.44935 36.538 10.1042 36.538 10.1042C37.8419 13.4603 37.0215 15.938 36.7728 16.5521C38.3088 18.2584 39.2383 20.4319 39.2383 23.092C39.2383 32.4502 33.6342 34.5107 28.2998 35.1139C29.1591 35.87 29.9247 37.3528 29.9247 39.626C29.9247 42.8856 29.8969 45.5094 29.8969 46.3123C29.8969 46.9607 30.3281 47.7204 31.5424 47.4812C41.0555 44.2558 47.9108 35.126 47.9108 24.3646C47.9108 10.9079 37.1854 0 23.9556 0Z" fill="#4F4F4F"/>
<path d="M9.07272 34.9824C9.01996 35.1039 8.83272 35.1398 8.66214 35.0567C8.48839 34.9772 8.3908 34.8122 8.44713 34.6907C8.4987 34.5661 8.68634 34.5318 8.85969 34.6145C9.03384 34.6944 9.13302 34.861 9.07272 34.9824Z" fill="black"/>
<path d="M10.0434 36.0831C9.92913 36.1908 9.70581 36.1408 9.55428 35.9705C9.39758 35.8007 9.36823 35.5735 9.48406 35.4642C9.60188 35.3564 9.81847 35.4069 9.97553 35.5767C10.1322 35.7486 10.1628 35.9742 10.0434 36.0831Z" fill="black"/>
<path d="M10.9876 37.4863C10.8409 37.59 10.6009 37.4927 10.4525 37.2761C10.3057 37.0594 10.3057 36.7996 10.4557 36.6955C10.6044 36.5914 10.8409 36.685 10.9912 36.9C11.1376 37.1199 11.1376 37.3802 10.9876 37.4863Z" fill="black"/>
<path d="M12.2818 38.8419C12.1505 38.9892 11.8709 38.9497 11.6662 38.7487C11.4567 38.5522 11.3984 38.2734 11.5301 38.1262C11.663 37.9785 11.9443 38.0201 12.1505 38.2194C12.3584 38.4155 12.4219 38.6963 12.2818 38.8419Z" fill="black"/>
<path d="M14.0671 39.6292C14.0092 39.8201 13.7398 39.9068 13.4685 39.8257C13.1975 39.7422 13.0202 39.5187 13.0749 39.3258C13.1313 39.1338 13.4018 39.0434 13.6751 39.1301C13.9457 39.2133 14.1234 39.4352 14.0671 39.6292Z" fill="black"/>
<path d="M16.0274 39.7752C16.0342 39.9761 15.8041 40.1428 15.5193 40.146C15.2329 40.1528 15.0012 39.9902 14.998 39.7925C14.998 39.5896 15.2229 39.4246 15.5094 39.4197C15.7942 39.4141 16.0274 39.5755 16.0274 39.7752Z" fill="black"/>
<path d="M17.8519 39.4592C17.886 39.6553 17.6881 39.8566 17.4052 39.9099C17.1271 39.9619 16.8697 39.8409 16.8344 39.6464C16.7999 39.4455 17.0014 39.2441 17.2791 39.1921C17.5623 39.1421 17.8158 39.2599 17.8519 39.4592Z" fill="black"/>
</svg>
