<svg width="62" height="69" viewBox="0 0 62 69" fill="none" xmlns="http://www.w3.org/2000/svg">
<path d="M62 0L56.3517 62.0929L30.9621 69L5.64248 62.1024L0 0H62Z" fill="#E44D26"/>
<path d="M30.9999 63.7203L51.516 58.139L56.3426 5.07764H30.9999V63.7203Z" fill="#F16529"/>
<path d="M20.0197 20.311H30.9999V12.6943H11.5371L11.7228 14.7377L13.6306 35.7271H30.9999V28.1105H20.7291L20.0197 20.311V20.311Z" fill="#EBEBEB"/>
<path d="M21.769 39.5356H13.9774L15.0647 51.4949L30.9642 55.8258L30.9999 55.8163V47.8918L30.9659 47.9006L22.3217 45.6102L21.769 39.5356V39.5356Z" fill="#EBEBEB"/>
<path d="M30.9731 35.7274H40.5309L39.6297 45.6056L30.9729 47.8985V55.8225L46.885 51.4951L47.0016 50.2082L48.8258 30.1561L49.0151 28.1108H30.9731V35.7274Z" fill="white"/>
<path d="M30.9731 20.2923V20.3109H49.7214L49.8769 18.5991L50.2308 14.7377L50.4162 12.6943H30.9731V20.2926V20.2923Z" fill="white"/>
</svg>
