<svg width="70" height="69" viewBox="0 0 70 69" fill="none" xmlns="http://www.w3.org/2000/svg">
<path d="M0.5 0H69.5V69H0.5V0Z" fill="#F7DF1E"/>
<path d="M18.6426 57.6614L23.9227 54.4658C24.9416 56.2719 25.8682 57.8002 28.091 57.8002C30.2217 57.8002 31.5653 56.9668 31.5653 53.7248V31.6777H38.0494V53.8165C38.0494 60.5324 34.1126 63.5894 28.3689 63.5894C23.1818 63.5894 20.1708 60.903 18.6423 57.6608" fill="black"/>
<path d="M41.5713 56.9668L46.8509 53.91C48.2409 56.1797 50.0473 57.8471 53.2428 57.8471C55.9298 57.8471 57.6429 56.5037 57.6429 54.651C57.6429 52.4279 55.8829 51.6403 52.9186 50.3439L51.2979 49.6485C46.6196 47.6574 43.5165 45.1562 43.5165 39.8761C43.5165 35.0126 47.2218 31.3071 53.0116 31.3071C57.1338 31.3071 60.0981 32.7432 62.2285 36.4948L57.1796 39.7373C56.0678 37.7457 54.8641 36.9584 53.0113 36.9584C51.1122 36.9584 49.9079 38.1627 49.9079 39.7373C49.9079 41.6825 51.1122 42.4703 53.8911 43.6746L55.512 44.3692C61.0239 46.7316 64.127 49.1399 64.127 54.5585C64.127 60.3949 59.5418 63.5905 53.3816 63.5905C47.3606 63.5905 43.4699 60.7189 41.571 56.967" fill="black"/>
</svg>
