<svg width="49" height="49" viewBox="0 0 49 49" fill="none" xmlns="http://www.w3.org/2000/svg">
<path fill-rule="evenodd" clip-rule="evenodd" d="M24.5 0C10.9691 0 0 10.9691 0 24.5C0 38.0309 10.9691 49 24.5 49C38.0309 49 49 38.0309 49 24.5C49 10.9691 38.0309 0 24.5 0ZM11.7616 20.2919H17.3138V36.9742H11.7616V20.2919ZM17.6796 15.1315C17.6436 13.4958 16.4739 12.25 14.5744 12.25C12.6751 12.25 11.4333 13.4958 11.4333 15.1315C11.4333 16.7333 12.6384 18.015 14.5024 18.015H14.5379C16.4739 18.015 17.6796 16.7333 17.6796 15.1315ZM30.9446 19.9002C34.5983 19.9002 37.3374 22.2851 37.3374 27.4091L37.3372 36.9742H31.7852V28.0491C31.7852 25.8074 30.9817 24.2777 28.9718 24.2777C27.4379 24.2777 26.5242 25.3089 26.1229 26.305C25.9761 26.6619 25.9401 27.1593 25.9401 27.6578V36.9746H20.3872C20.3872 36.9746 20.4604 21.8578 20.3872 20.2924H25.9401V22.6553C26.6769 21.5194 27.9968 19.9002 30.9446 19.9002Z" fill="#4F4F4F"/>
</svg>
