<svg width="77" height="69" viewBox="0 0 77 69" fill="none" xmlns="http://www.w3.org/2000/svg">
<g clip-path="url(#clip0_9_127)">
<path d="M63.3093 22.3414C62.4899 22.0585 61.6635 21.7965 60.8309 21.5555C60.9708 20.9805 61.0995 20.4124 61.2138 19.8544C63.0901 10.6904 61.8635 3.30771 57.6739 0.876974C53.657 -1.45329 47.0876 0.976539 40.453 6.78616C39.7991 7.35975 39.1597 7.94986 38.5355 8.55595C38.1176 8.15292 37.6923 7.75772 37.2599 7.37054C30.3064 1.15872 23.3367 -1.45934 19.1516 0.978355C15.1383 3.31588 13.9499 10.2561 15.6391 18.9411C15.8072 19.8012 15.9969 20.6569 16.2082 21.5074C15.2216 21.7894 14.2697 22.0896 13.3586 22.4092C5.20622 25.2691 0 29.7507 0 34.3995C0 39.2007 5.58912 44.0165 14.0802 46.9366C14.7686 47.1724 15.4627 47.3908 16.1619 47.5918C15.9348 48.5078 15.7332 49.4299 15.5573 50.3572C13.9469 58.8914 15.2045 65.6677 19.207 67.9904C23.3409 70.389 30.2793 67.9238 37.0352 61.9816C37.583 61.4985 38.1188 61.0018 38.642 60.4918C39.318 61.148 40.0121 61.7852 40.7234 62.4026C47.2678 68.0685 53.731 70.3563 57.7295 68.0273C61.8596 65.6217 63.202 58.3422 61.4592 49.4857C61.3219 48.7918 61.168 48.1014 60.9975 47.4151C61.4848 47.2698 61.963 47.1203 62.4293 46.9647C71.2566 44.0223 77 39.2649 77 34.3995C77 29.7338 71.6256 25.2219 63.3093 22.3414ZM61.3949 43.8234C60.9738 43.9635 60.5419 44.0988 60.1015 44.2305C59.127 41.1264 57.812 37.8259 56.2025 34.4155C57.7383 31.0866 59.0028 27.8281 59.9499 24.7443C60.7377 24.9737 61.5019 25.2155 62.2389 25.4706C69.3644 27.9389 73.7107 31.5877 73.7107 34.3995C73.7107 37.3943 69.0167 41.2822 61.3949 43.8234ZM58.2325 50.1284C59.0031 54.0445 59.1128 57.5853 58.6024 60.3535C58.144 62.8408 57.2218 64.4989 56.0813 65.1632C53.6549 66.5765 48.4655 64.7395 42.8688 59.8938C42.2072 59.3198 41.5616 58.7274 40.9327 58.1173C43.1026 55.7299 45.2709 52.9544 47.3872 49.8718C51.1097 49.5395 54.6264 48.996 57.8156 48.2543C57.9726 48.8919 58.1121 49.5171 58.2325 50.1284ZM26.251 64.919C23.8802 65.7612 21.9919 65.7854 20.8505 65.1232C18.4216 63.7139 17.4119 58.2729 18.7892 50.9746C18.9529 50.1122 19.1404 49.2545 19.3514 48.4025C22.5054 49.1046 25.9965 49.6094 29.7277 49.9139C31.8584 52.9302 34.0893 55.7026 36.3377 58.1303C35.8599 58.5955 35.3708 59.0488 34.8708 59.4898C31.8831 62.1172 28.8894 63.9814 26.251 64.919ZM15.1443 43.805C11.3897 42.5136 8.28893 40.8355 6.16361 39.0043C4.25365 37.3589 3.28964 35.725 3.28964 34.3995C3.28964 31.5783 7.4696 27.9801 14.4414 25.5345C15.2875 25.2379 16.173 24.958 17.0919 24.6953C18.0556 27.8487 19.3195 31.1459 20.8447 34.48C19.2996 37.8634 18.0177 41.2132 17.0447 44.4039C16.4064 44.2199 15.7728 44.0202 15.1443 43.805ZM18.8674 18.3052C17.4203 10.8644 18.3813 5.25151 20.7999 3.84276C23.3758 2.34232 29.072 4.48162 35.0759 9.84546C35.4674 10.196 35.8526 10.5537 36.2312 10.9183C33.994 13.3354 31.7836 16.0872 29.6718 19.0857C26.0504 19.4234 22.5839 19.9658 19.3968 20.6924C19.2004 19.9014 19.0239 19.1055 18.8674 18.3055V18.3052ZM52.0818 26.5574C51.329 25.2491 50.5483 23.9573 49.7402 22.6828C52.197 22.9954 54.5509 23.4103 56.7613 23.9175C56.0978 26.0577 55.2707 28.2951 54.297 30.589C53.5854 29.2305 52.8468 27.8863 52.0818 26.5574ZM38.537 13.2837C40.0541 14.9375 41.5737 16.7839 43.0683 18.7873C40.0364 18.6432 36.9995 18.6426 33.9675 18.7855C35.4636 16.8005 36.9961 14.9566 38.537 13.2837ZM24.9053 26.5801C24.1498 27.8983 23.4251 29.2341 22.7315 30.5863C21.7739 28.3005 20.9542 26.0529 20.285 23.8824C22.4819 23.3879 24.8247 22.9836 27.2658 22.6767C26.4487 23.959 25.6617 25.2604 24.9053 26.5798V26.5801ZM27.3359 46.3577C24.8139 46.0744 22.4359 45.691 20.2396 45.2098C20.9193 43.0006 21.757 40.7051 22.7355 38.3703C23.4317 39.7236 24.1595 41.0601 24.9182 42.379C25.6985 43.7348 26.5063 45.0627 27.3359 46.3577ZM38.6278 55.7483C37.0686 54.056 35.5135 52.1836 33.9949 50.1699C35.4693 50.228 36.9723 50.2577 38.5 50.2577C40.0695 50.2577 41.6209 50.2223 43.148 50.1539C41.6486 52.2039 40.1347 54.079 38.6278 55.7483ZM54.328 38.2511C55.3573 40.6116 56.2247 42.8949 56.9135 45.0663C54.6811 45.579 52.2707 45.9918 49.7309 46.2983C50.5447 45.0002 51.3328 43.6859 52.0947 42.3563C52.8693 41.0047 53.6139 39.636 54.328 38.2511ZM49.2454 40.7027C48.079 42.7413 46.8471 44.7413 45.5515 46.6993C43.2047 46.8666 40.8527 46.9496 38.5 46.9484C36.1037 46.9484 33.7729 46.8733 31.5285 46.7269C30.1991 44.7733 28.9437 42.7699 27.7648 40.7208H27.7651C26.5918 38.6826 25.4959 36.6003 24.4797 34.4785C25.4933 32.3561 26.5859 30.2728 27.7552 28.2331L27.7549 28.2334C28.9237 26.1931 30.1692 24.1982 31.4885 22.2531C33.7783 22.0787 36.1265 21.9879 38.4997 21.9879H38.5C40.884 21.9879 43.2352 22.0796 45.5244 22.2552C46.8305 24.1974 48.0679 26.1854 49.2346 28.2155C50.4078 30.2508 51.5148 32.3239 52.554 34.4316C51.5255 36.5608 50.4219 38.6525 49.2454 40.7027ZM56.031 3.74411C58.6093 5.24032 59.6121 11.2739 57.9921 19.1862C57.8887 19.691 57.7726 20.2051 57.6462 20.7266C54.4513 19.9845 50.9824 19.4328 47.3505 19.0899C45.2348 16.0585 43.0424 13.3024 40.8416 10.9165C41.4184 10.3571 42.0089 9.81216 42.6126 9.28226C48.2973 4.30488 53.6103 2.33959 56.031 3.74411ZM38.5 27.4813C42.2974 27.4813 45.3759 30.5788 45.3759 34.3995C45.3759 38.2202 42.2974 41.3176 38.5 41.3176C34.7026 41.3176 31.6241 38.2202 31.6241 34.3995C31.6241 30.5788 34.7026 27.4813 38.5 27.4813Z" fill="#00D8FF"/>
</g>
<defs>
<clipPath id="clip0_9_127">
<rect width="77" height="69" fill="white"/>
</clipPath>
</defs>
</svg>
