<svg width="49" height="49" viewBox="0 0 49 49" fill="none" xmlns="http://www.w3.org/2000/svg">
<circle cx="24.5" cy="24.5" r="24.5" fill="#4F4F4F"/>
<path fill-rule="evenodd" clip-rule="evenodd" d="M28.1292 24.2765C29.0711 23.5387 29.7594 22.5254 30.0981 21.3778C30.4368 20.2302 30.4091 19.0056 30.0189 17.8745C29.6286 16.7434 28.8952 15.7623 27.9209 15.0678C26.9466 14.3733 25.7799 14 24.5833 14C23.3868 14 22.2201 14.3733 21.2458 15.0678C20.2715 15.7623 19.5381 16.7434 19.1478 17.8745C18.7575 19.0056 18.7298 20.2302 19.0686 21.3778C19.4073 22.5254 20.0956 23.5387 21.0375 24.2765C19.2574 24.9855 17.7307 26.2118 16.6545 27.797C15.5783 29.3823 15.002 31.2538 15 33.1699V34.1282C15 34.3824 15.101 34.6261 15.2807 34.8059C15.4604 34.9856 15.7042 35.0865 15.9583 35.0865C16.2125 35.0865 16.4563 34.9856 16.636 34.8059C16.8157 34.6261 16.9167 34.3824 16.9167 34.1282V33.1699C16.9167 31.1365 17.7244 29.1865 19.1622 27.7487C20.6 26.3109 22.55 25.5032 24.5833 25.5032C26.6167 25.5032 28.5667 26.3109 30.0045 27.7487C31.4423 29.1865 32.25 31.1365 32.25 33.1699V34.1282C32.25 34.3824 32.351 34.6261 32.5307 34.8059C32.7104 34.9856 32.9542 35.0865 33.2083 35.0865C33.4625 35.0865 33.7063 34.9856 33.886 34.8059C34.0657 34.6261 34.1667 34.3824 34.1667 34.1282V33.1699C34.1647 31.2538 33.5884 29.3823 32.5122 27.797C31.436 26.2118 29.9093 24.9855 28.1292 24.2765ZM20.75 19.7532C20.75 18.995 20.9748 18.2539 21.396 17.6235C21.8172 16.9931 22.4159 16.5018 23.1164 16.2117C23.8168 15.9215 24.5876 15.8456 25.3312 15.9935C26.0748 16.1414 26.7578 16.5065 27.2939 17.0426C27.83 17.5787 28.1951 18.2618 28.343 19.0054C28.4909 19.749 28.415 20.5197 28.1249 21.2202C27.8347 21.9206 27.3434 22.5193 26.713 22.9405C26.0826 23.3617 25.3415 23.5865 24.5833 23.5865C23.5667 23.5865 22.5916 23.1827 21.8728 22.4638C21.1539 21.7449 20.75 20.7699 20.75 19.7532Z" fill="#F2F2F2"/>
</svg>
