<svg width="92" height="69" viewBox="0 0 92 69" fill="none" xmlns="http://www.w3.org/2000/svg">
<path d="M79.2192 39.6655C76.0097 39.6821 73.2201 40.4552 70.8846 41.598C70.0272 39.9005 69.1703 38.3883 69.0193 37.279C68.851 35.9851 68.6495 35.1951 68.851 33.649C69.0528 32.1029 69.9602 29.9012 69.9433 29.7333C69.9267 29.5653 69.7415 28.7753 67.8931 28.7588C66.0448 28.7418 64.4483 29.1116 64.2635 29.5989C64.0786 30.0861 63.7258 31.1954 63.4905 32.3379C63.1712 34.0188 59.7938 40.018 57.8615 43.1607C57.2395 41.9342 56.7018 40.8585 56.584 40.0014C56.4161 38.7076 56.2142 37.9176 56.4161 36.3715C56.6179 34.8254 57.5253 32.6241 57.5083 32.4557C57.4914 32.2878 57.3065 31.4978 55.4582 31.4812C53.6095 31.4643 52.0131 31.8341 51.8285 32.3213C51.6437 32.8089 51.4419 33.9514 51.0556 35.0607C50.6689 36.17 46.1823 46.1862 45.006 48.7739C44.5307 49.8213 44.032 50.8579 43.5105 51.8831C43.5105 51.8831 43.4935 51.9335 43.4431 52.0175C43.2792 52.339 43.1113 52.6583 42.9393 52.9755V52.992C42.687 53.4461 42.4182 53.866 42.2838 53.866C42.1829 53.866 41.998 52.6561 42.3173 51.0091C42.9894 47.5305 44.5858 42.1191 44.5693 41.9342C44.5693 41.8333 44.8716 40.8923 43.5274 40.4047C42.2164 39.9175 41.7461 40.724 41.6283 40.724C41.5108 40.724 41.4265 41.0098 41.4265 41.0098C41.4265 41.0098 42.8888 34.9263 38.6372 34.9263C35.9824 34.9263 32.3188 37.8336 30.504 40.4552C28.4409 41.578 26.3796 42.704 24.3201 43.8332C23.329 44.3879 22.3038 44.9425 21.3459 45.4633C21.2785 45.3962 21.2115 45.3119 21.1441 45.2449C16.002 39.7495 6.49111 35.8673 6.89437 28.4899C7.04572 25.801 7.96971 18.7425 25.1604 10.1719C39.3093 3.19743 50.5683 5.12989 52.5176 9.4154C55.3068 15.5328 46.485 26.8933 31.8651 28.54C26.2862 29.1621 23.3622 27.0108 22.6231 26.2043C21.8501 25.3638 21.7322 25.3133 21.4465 25.4817C20.9762 25.7339 21.2785 26.4901 21.4465 26.9269C21.8836 28.0693 23.6815 30.0861 26.723 31.0779C29.4117 31.9515 35.9485 32.4392 43.8633 29.3805C52.719 25.952 59.6425 16.4234 57.6092 8.44088C55.5757 0.340542 42.1324 -2.33146 29.4117 2.18903C21.8501 4.87833 13.6495 9.11303 7.75133 14.6253C0.743931 21.1792 -0.365287 26.8764 0.0884184 29.263C1.71873 37.7327 13.3976 43.245 18.0691 47.3287C17.8338 47.4631 17.615 47.581 17.4305 47.6819C15.0946 48.8413 6.1884 53.4962 3.97032 58.4204C1.4499 63.9997 4.37394 67.9998 6.30624 68.5371C12.3053 70.2011 18.4723 67.2098 21.7827 62.2687C25.0931 57.328 24.6898 50.9082 23.1607 47.9673C23.1438 47.9338 23.1272 47.8999 23.0934 47.8664C23.6984 47.5136 24.3201 47.1438 24.9251 46.791C26.0372 46.1335 27.1634 45.5003 28.3029 44.8917C27.7313 46.4547 27.3111 48.3202 27.1097 51.0091C26.8574 54.1687 28.1512 58.269 29.8485 59.8821C30.6049 60.5885 31.4954 60.6051 32.0669 60.6051C34.0497 60.6051 34.9405 58.9581 35.9319 57.0087C37.1417 54.6225 38.2339 51.8496 38.2339 51.8496C38.2339 51.8496 36.8728 59.3448 40.5699 59.3448C41.914 59.3448 43.2752 57.5969 43.8802 56.7063V56.7229C43.8802 56.7229 43.9137 56.6724 43.9811 56.5549C44.1155 56.3365 44.1995 56.2017 44.1995 56.2017V56.1686C44.7372 55.2272 45.9473 53.0929 47.7452 49.547C50.0642 44.976 52.2992 39.2622 52.2992 39.2622C52.2992 39.2622 52.501 40.657 53.1897 42.9762C53.5933 44.3374 54.4329 45.833 55.1054 47.2783C54.5677 48.0347 54.2315 48.4546 54.2315 48.4546L54.2484 48.4715C53.8113 49.0428 53.341 49.6645 52.8199 50.2699C50.9882 52.4543 48.804 54.9587 48.5013 55.681C48.1481 56.538 48.2324 57.16 48.9049 57.6642C49.3921 58.034 50.2656 58.0841 51.1565 58.034C52.8033 57.9162 53.9627 57.5129 54.5338 57.261C55.4247 56.9416 56.4665 56.454 57.441 55.7314C59.2392 54.4037 60.3311 52.5048 60.2306 50.0011C60.1801 48.6229 59.7264 47.2447 59.1718 45.9505C59.3401 45.7156 59.4911 45.4802 59.6594 45.2449C62.4991 41.0938 64.7006 36.5394 64.7006 36.5394C64.7006 36.5394 64.9024 37.9342 65.5911 40.2537C65.9273 41.4301 66.6163 42.7073 67.221 43.9507C64.5492 46.1189 62.9024 48.6395 62.3142 50.2865C61.2558 53.3452 62.0789 54.723 63.6418 55.0423C64.3474 55.1937 65.3558 54.8575 66.0952 54.5381C67.0362 54.2358 68.1454 53.715 69.2042 52.9416C71.0024 51.6142 72.7329 49.7654 72.632 47.2617C72.5815 46.1189 72.2792 44.9926 71.859 43.9002C74.1275 42.9596 77.0516 42.4384 80.7818 42.8753C88.7809 43.8163 90.3604 48.8074 90.0577 50.9086C89.7553 53.009 88.0749 54.1518 87.5207 54.5046C86.9657 54.8578 86.7812 54.9753 86.8316 55.2272C86.8987 55.597 87.1675 55.5804 87.6382 55.513C88.2937 55.3955 91.8394 53.8155 91.9903 49.9503C92.2426 45.0095 87.5373 39.6151 79.2192 39.6655ZM17.5145 60.4707C14.8593 63.3611 11.1626 64.4535 9.56615 63.5294C7.85223 62.5376 8.52432 58.269 11.7842 55.2106C13.767 53.3452 16.3213 51.6139 18.0186 50.5554C18.4049 50.32 18.9765 49.9841 19.6655 49.5639C19.783 49.4965 19.8504 49.463 19.8504 49.463L20.2536 49.2107C21.4465 53.5802 20.3041 57.4289 17.5145 60.4707ZM36.8393 47.3287C35.915 49.5808 33.9827 55.3451 32.8064 55.0258C31.7981 54.7569 31.1761 50.3874 32.6046 46.0684C33.3271 43.9002 34.8562 41.3122 35.747 40.3042C37.1921 38.6907 38.7886 38.1526 39.1749 38.8085C39.6625 39.6655 37.4105 45.917 36.8393 47.3287ZM52.7864 54.9584C52.3997 55.1602 52.0304 55.2946 51.8621 55.1937C51.7446 55.1263 52.0304 54.8575 52.0304 54.8575C52.0304 54.8575 54.03 52.7066 54.8196 51.7317C55.2737 51.1605 55.811 50.4883 56.3825 49.7319V49.9503C56.3825 52.5217 53.8953 54.2527 52.786 54.9584H52.7864ZM65.0869 52.1519C64.8011 51.9501 64.8516 51.278 65.8095 49.1772C66.1792 48.3537 67.0527 46.9759 68.5486 45.6482C68.7166 46.1859 68.8344 46.707 68.8175 47.1943C68.8005 50.4379 66.4819 51.6477 65.0869 52.1519Z" fill="#CD6799"/>
</svg>
