<svg width="100" height="69" viewBox="0 0 100 69" fill="none" xmlns="http://www.w3.org/2000/svg">
<path d="M74.0786 20.1775L65.3172 47.6214C65.3172 45.5196 59.2749 0 59.2749 0C45.3776 0 38.006 9.78851 34.139 20.1775L23.4441 47.6815C23.4441 45.6997 21.9335 20.4177 21.9335 20.4177C21.4175 14.9446 18.8999 9.84976 14.8576 6.0977C10.8153 2.34604 5.5291 0.19777 0 0.0600498L11.3595 69C25.861 69 33.716 59.2115 37.7644 48.8224L46.8278 25.4021C46.8278 26.3629 52.8701 69 52.8701 69C58.7996 68.9924 64.5732 67.1083 69.3531 63.6209C74.1333 60.1331 77.6721 55.2236 79.4562 49.6031L100 0C85.4985 0 77.8852 9.78851 74.0181 20.1775H74.0786Z" fill="#3076BC"/>
</svg>
